<?xml version="1.0" encoding="UTF-8" standalone="no"?><!DOCTYPE svg PUBLIC "-//W3C//DTD SVG 1.1//EN" "http://www.w3.org/Graphics/SVG/1.1/DTD/svg11.dtd"><svg width="100%" height="100%" viewBox="0 0 320 320" version="1.1" xmlns="http://www.w3.org/2000/svg" xmlns:xlink="http://www.w3.org/1999/xlink" xml:space="preserve" xmlns:serif="http://www.serif.com/" style="fill-rule:evenodd;clip-rule:evenodd;"><g><path d="M230,35l0,64c0,4.415 -3.585,8 -8,8l-64,0c-4.415,0 -8,-3.585 -8,-8l0,-64c0,-4.415 3.585,-8 8,-8l64,0c4.415,0 8,3.585 8,8Z" style="fill:url(#_Linear1);"/><path d="M297,77l0,43c0,3.863 -3.137,7 -7,7l-43,0c-3.863,0 -7,-3.137 -7,-7l0,-43c0,-3.863 3.137,-7 7,-7l43,0c3.863,0 7,3.137 7,7Z" style="fill:url(#_Linear2);"/><path d="M308,156l0,32c0,3.311 -2.689,6 -6,6l-32,0c-3.311,0 -6,-2.689 -6,-6l0,-32c0,-3.311 2.689,-6 6,-6l32,0c3.311,0 6,2.689 6,6Z" style="fill:url(#_Linear3);"/><path d="M281,228l0,24c0,2.76 -2.24,5 -5,5l-24,0c-2.76,0 -5,-2.24 -5,-5l0,-24c0,-2.76 2.24,-5 5,-5l24,0c2.76,0 5,2.24 5,5Z" style="fill:url(#_Linear4);"/><path d="M230,261l0,15c0,2.208 -1.792,4 -4,4l-15,0c-2.208,0 -4,-1.792 -4,-4l0,-15c0,-2.208 1.792,-4 4,-4l15,0c2.208,0 4,1.792 4,4Z" style="fill:url(#_Linear5);"/><path d="M168,283l0,10c0,1.656 -1.344,3 -3,3l-10,0c-1.656,0 -3,-1.344 -3,-3l0,-10c0,-1.656 1.344,-3 3,-3l10,0c1.656,0 3,1.344 3,3Z" style="fill:url(#_Linear6);"/></g><path d="M182,108l0,94c0,9.934 -8.066,18 -18,18l-94,0c-9.934,0 -18,-8.066 -18,-18l0,-94c0,-9.934 8.066,-18 18,-18l94,0c9.934,0 18,8.066 18,18Z" style="fill:none;stroke:#fff;stroke-width:16px;"/><path d="M176,112l0,86c0,8.831 -7.169,16 -16,16l-86,0c-8.831,0 -16,-7.169 -16,-16l0,-86c0,-8.831 7.169,-16 16,-16l86,0c8.831,0 16,7.169 16,16Z" style="fill:none;stroke:url(#_Linear7);stroke-width:22.2px;"/><defs><linearGradient id="_Linear1" x1="0" y1="0" x2="1" y2="0" gradientUnits="userSpaceOnUse" gradientTransform="matrix(80,80,-80,80,150,27)"><stop offset="0" style="stop-color:#0b4f8a;stop-opacity:1"/><stop offset="1" style="stop-color:#3aa0e6;stop-opacity:1"/></linearGradient><linearGradient id="_Linear2" x1="0" y1="0" x2="1" y2="0" gradientUnits="userSpaceOnUse" gradientTransform="matrix(57,57,-57,57,240,70)"><stop offset="0" style="stop-color:#0b4f8a;stop-opacity:1"/><stop offset="1" style="stop-color:#3aa0e6;stop-opacity:1"/></linearGradient><linearGradient id="_Linear3" x1="0" y1="0" x2="1" y2="0" gradientUnits="userSpaceOnUse" gradientTransform="matrix(44,44,-44,44,264,150)"><stop offset="0" style="stop-color:#0b4f8a;stop-opacity:1"/><stop offset="1" style="stop-color:#3aa0e6;stop-opacity:1"/></linearGradient><linearGradient id="_Linear4" x1="0" y1="0" x2="1" y2="0" gradientUnits="userSpaceOnUse" gradientTransform="matrix(34,34,-34,34,247,223)"><stop offset="0" style="stop-color:#0b4f8a;stop-opacity:1"/><stop offset="1" style="stop-color:#3aa0e6;stop-opacity:1"/></linearGradient><linearGradient id="_Linear5" x1="0" y1="0" x2="1" y2="0" gradientUnits="userSpaceOnUse" gradientTransform="matrix(23,23,-23,23,207,257)"><stop offset="0" style="stop-color:#0b4f8a;stop-opacity:1"/><stop offset="1" style="stop-color:#3aa0e6;stop-opacity:1"/></linearGradient><linearGradient id="_Linear6" x1="0" y1="0" x2="1" y2="0" gradientUnits="userSpaceOnUse" gradientTransform="matrix(16,16,-16,16,152,280)"><stop offset="0" style="stop-color:#4fb3f6;stop-opacity:1"/><stop offset="1" style="stop-color:#bfe4ff;stop-opacity:1"/></linearGradient><linearGradient id="_Linear7" x1="0" y1="0" x2="1" y2="0" gradientUnits="userSpaceOnUse" gradientTransform="matrix(118,118,-118,118,58,96)"><stop offset="0" style="stop-color:#0b4f8a;stop-opacity:1"/><stop offset="1" style="stop-color:#3aa0e6;stop-opacity:1"/></linearGradient></defs></svg>